<svg width="7" height="7" viewBox="0 0 7 7" fill="none" xmlns="http://www.w3.org/2000/svg">
<path d="M4 0.307248C4.43167 0.307248 4.83133 0.444581 5.15833 0.677248L2.11433 3.72191C2.05361 3.78478 2.02002 3.86898 2.02078 3.95638C2.02154 4.04378 2.05659 4.12738 2.11839 4.18919C2.1802 4.25099 2.2638 4.28605 2.3512 4.28681C2.4386 4.28757 2.5228 4.25397 2.58567 4.19325L5.63 1.14891C5.87063 1.48736 5.99995 1.89231 6 2.30758V5.64091C6 5.81773 5.92976 5.98729 5.80474 6.11232C5.67971 6.23734 5.51014 6.30758 5.33333 6.30758H0.666667C0.489856 6.30758 0.320286 6.23734 0.195262 6.11232C0.0702379 5.98729 0 5.81773 0 5.64091V0.973915C0 0.797104 0.0702379 0.627534 0.195262 0.50251C0.320286 0.377486 0.489856 0.307248 0.666667 0.307248H4ZM5.74733 0.0885812C5.81064 0.030095 5.89412 -0.00162545 5.9803 6.41952e-05C6.06647 0.00175384 6.14864 0.0367225 6.20961 0.0976454C6.27057 0.158568 6.3056 0.240719 6.30735 0.32689C6.3091 0.41306 6.27744 0.496566 6.219 0.559915L5.63 1.14891C5.50036 0.966544 5.3407 0.806887 5.15833 0.677248L5.74733 0.0885812Z" fill="#DF8C06"/>
</svg>
